<svg width="307" height="86" viewBox="0 0 307 86" fill="none" xmlns="http://www.w3.org/2000/svg">
<rect x="84.2457" y="20" width="46" height="46" rx="23" fill="#FD853A"/>
<path d="M119.44 46.5953C118.347 47.7882 117.006 48.526 115.383 48.5885C112.318 48.7063 109.945 46.9061 109.652 44.6538C109.067 40.1703 111.986 37.4112 115.183 37.4112C116.81 37.4112 118.021 38.0328 119.096 39.0293L121.901 35.8705C120.379 34.3661 118.038 33 115.183 33C112.419 33 109.932 33.914 108.046 35.6215V33.4076H94.1457V37.6873H102.94V44.4952C102.94 47.5861 101.763 48.5885 99.472 48.5885C97.9841 48.5885 96.4616 47.7186 95.1734 46.1089L92.2457 49.2749C94.2088 52.0211 97.1435 53 99.6411 53C103.507 53 105.81 51.5884 107.001 49.4611C108.94 51.801 111.782 53 114.857 53C117.888 53 120.408 51.8625 122.246 49.6852L119.44 46.5953Z" fill="white"/>
<g clip-path="url(#clip0_19_12069)">
<path d="M140.246 49.3807L142.626 46.7839C143.671 48.1062 144.906 48.8209 146.116 48.8221C147.976 48.8221 148.933 48.0012 148.935 45.462L148.941 37.0813L141.799 37.074L141.802 33.5557L153.09 33.5646L153.081 45.8072C153.078 49.441 151.31 52.4471 146.251 52.4443C144.222 52.443 141.839 51.6382 140.246 49.3807Z" fill="white"/>
<path d="M156.09 43.0944C156.094 36.9495 159.934 33.3861 164.832 33.3901C167.151 33.3901 169.052 34.5145 170.288 35.7519L168.007 38.3455C167.135 37.5254 166.151 37.0139 164.83 37.0127C162.234 37.0127 160.336 39.2469 160.334 42.9596C160.331 46.7696 162.224 48.9821 164.983 48.9861C166.302 48.9861 167.391 48.331 168.279 47.3523L170.555 49.8915C169.063 51.6799 167.015 52.6119 164.554 52.6099C160.008 52.6042 156.085 49.3483 156.09 43.0944Z" fill="white"/>
<path d="M187.996 52.274L183.866 44.8543C185.819 43.9606 187.126 42.2342 187.128 39.5111C187.132 35.1014 183.945 33.734 180.071 33.7308L173.569 33.726L173.556 52.2616L177.703 52.2648L177.707 45.5972H179.881L183.366 52.2672L187.996 52.274ZM177.714 37.0587H179.731C181.906 37.0587 183.072 37.6765 183.071 39.5062C183.071 41.3207 181.902 42.268 179.727 42.2664H177.71L177.714 37.0587Z" fill="white"/>
<path d="M191.011 33.7274L203.133 33.7366L203.13 37.2537L195.147 37.2477L195.145 40.9652L201.927 40.9704L201.924 44.4875L195.142 44.4823L195.139 48.7479L203.402 48.7543L203.4 52.2726L190.996 52.263L191.011 33.7274Z" fill="white"/>
<path d="M218.366 52.2682L222.754 52.2718L217.073 33.7318L212.112 33.7281L206.402 52.2593L210.639 52.2626L211.758 47.8549L217.262 47.8589L218.366 52.2682ZM212.588 44.5869L213.024 42.8799C213.488 41.0288 213.998 38.8589 214.448 36.9032H214.56C214.999 38.8597 215.553 41.0316 216.015 42.8823L216.443 44.5901L212.588 44.5869Z" fill="white"/>
</g>
<defs>
<clipPath id="clip0_19_12069">
<rect width="82.5084" height="19.2197" fill="white" transform="translate(140.246 33.3901)"/>
</clipPath>
</defs>
</svg>
