<svg width="307" height="86" viewBox="0 0 307 86" fill="none" xmlns="http://www.w3.org/2000/svg">
<rect y="20" width="46" height="46" rx="23" fill="#FD853A"/>
<path d="M35.1944 46.5953C34.1017 47.7882 32.7602 48.526 31.1371 48.5885C28.0722 48.7063 25.6997 46.9061 25.4059 44.6538C24.8212 40.1703 27.7404 37.4112 30.9375 37.4112C32.5643 37.4112 33.7753 38.0328 34.8504 39.0293L37.6553 35.8705C36.1332 34.3661 33.7922 33 30.9375 33C28.1735 33 25.6862 33.914 23.8 35.6215V33.4076H9.90002V37.6873H18.6941V44.4952C18.6941 47.5861 17.517 48.5885 15.2262 48.5885C13.7383 48.5885 12.2159 47.7186 10.9276 46.1089L8 49.2749C9.96306 52.0211 12.8978 53 15.3954 53C19.2608 53 21.5638 51.5884 22.7551 49.4611C24.6941 51.801 27.5364 53 30.6114 53C33.6424 53 36.1623 51.8625 38 49.6852L35.1944 46.5953Z" fill="white"/>
<g clip-path="url(#clip0_64_1829)">
<path d="M56 49.3806L58.3805 46.7838C59.4255 48.1062 60.6607 48.8209 61.8701 48.8221C63.7303 48.8221 64.6877 48.0011 64.6893 45.4619L64.6956 37.0812L57.5534 37.074L57.5562 33.5557L68.8439 33.5645L68.8348 45.8072C68.832 49.441 67.0642 52.447 62.0049 52.4442C59.9759 52.443 57.5931 51.6382 56 49.3806Z" fill="white"/>
<path d="M71.8439 43.0944C71.8486 36.9495 75.6878 33.3861 80.5866 33.3901C82.9049 33.3901 84.8059 34.5145 86.0419 35.7519L83.7609 38.3455C82.889 37.5254 81.9055 37.0139 80.5839 37.0127C77.9878 37.0127 76.0904 39.2469 76.0881 42.9596C76.0849 46.7696 77.9787 48.9821 80.7376 48.9861C82.0565 48.9861 83.1454 48.331 84.0335 47.3523L86.3097 49.8915C84.817 51.6799 82.7698 52.6119 80.3081 52.6099C75.7623 52.6042 71.8391 49.3483 71.8439 43.0944Z" fill="white"/>
<path d="M103.75 52.2742L99.6203 44.8544C101.573 43.9607 102.88 42.2343 102.882 39.5112C102.886 35.1015 99.6991 33.7341 95.8251 33.7309L89.3237 33.7261L89.3098 52.2617L93.4569 52.2649L93.4617 45.5973H95.6357L99.1202 52.2673L103.75 52.2742ZM93.468 37.0589H95.4855C97.6603 37.0589 98.8265 37.6766 98.8249 39.5064C98.8249 41.3208 97.6563 42.2681 95.4815 42.2665H93.464L93.468 37.0589Z" fill="white"/>
<path d="M106.765 33.7275L118.887 33.7368L118.884 37.2539L110.902 37.2479L110.899 40.9654L117.681 40.9706L117.679 44.4877L110.896 44.4825L110.893 48.7481L119.157 48.7545L119.154 52.2728L106.75 52.2632L106.765 33.7275Z" fill="white"/>
<path d="M134.12 52.2681L138.508 52.2717L132.828 33.7316L127.867 33.728L122.157 52.2592L126.393 52.2624L127.512 47.8548L133.016 47.8588L134.12 52.2681ZM128.342 44.5868L128.778 42.8797C129.243 41.0286 129.753 38.8588 130.202 36.9031H130.314C130.753 38.8596 131.308 41.0314 131.77 42.8822L132.198 44.59L128.342 44.5868Z" fill="white"/>
</g>
<defs>
<clipPath id="clip0_64_1829">
<rect width="82.5084" height="19.2197" fill="white" transform="translate(56 33.3901)"/>
</clipPath>
</defs>
</svg>
