<svg width="27" height="26" viewBox="0 0 27 26" fill="none" xmlns="http://www.w3.org/2000/svg">
<path d="M21.2252 15.76C20.8798 16.0947 20.7212 16.5787 20.7998 17.0533L21.9852 23.6133C22.0852 24.1693 21.8505 24.732 21.3852 25.0533C20.9292 25.3867 20.3225 25.4267 19.8252 25.16L13.9198 22.08C13.7145 21.9707 13.4865 21.912 13.2532 21.9053H12.8918C12.7665 21.924 12.6438 21.964 12.5318 22.0253L6.62517 25.12C6.33317 25.2667 6.0025 25.3187 5.6785 25.2667C4.88917 25.1173 4.3625 24.3653 4.49183 23.572L5.6785 17.012C5.75717 16.5333 5.5985 16.0467 5.25317 15.7067L0.438501 11.04C0.0358344 10.6493 -0.104166 10.0627 0.0798344 9.53333C0.258501 9.00533 0.714501 8.62 1.26517 8.53333L7.89183 7.572C8.39583 7.52 8.8385 7.21333 9.06517 6.76L11.9852 0.773333C12.0545 0.64 12.1438 0.517333 12.2518 0.413333L12.3718 0.32C12.4345 0.250667 12.5065 0.193333 12.5865 0.146667L12.7318 0.0933333L12.9585 0H13.5198C14.0212 0.052 14.4625 0.352 14.6932 0.8L17.6518 6.76C17.8652 7.196 18.2798 7.49867 18.7585 7.572L25.3852 8.53333C25.9452 8.61333 26.4132 9 26.5985 9.53333C26.7732 10.068 26.6225 10.6547 26.2118 11.04L21.2252 15.76Z" fill="#FD853A"/>
</svg>
