<svg width="71" height="72" viewBox="0 0 71 72" fill="none" xmlns="http://www.w3.org/2000/svg">
<path d="M27.3047 60.4491H67.4609V44.0702H27.3047V60.4491ZM3.51465 34.1766H43.6738V17.7987H3.51465V34.1766ZM49.0674 7.94028H56.5488V3.87485H49.0674V7.94028ZM14.4688 7.92563H45.7432V3.86411H14.4688V7.92563ZM70.7529 62.5623L70.7285 62.6131C70.523 63.0437 70.2381 63.3383 69.877 63.5194C69.6105 63.6529 69.3141 63.7195 68.9971 63.742L68.6738 63.7508C65.9051 63.7162 63.1377 63.7381 60.3643 63.7381H59.8135C59.8109 65.5382 59.7838 67.262 59.8291 68.9862V68.9872C59.8407 69.433 59.7785 69.8395 59.6006 70.1952C59.4209 70.5544 59.1327 70.842 58.7275 71.0643L58.6709 71.0956H12.3301L12.2744 71.0653C11.8643 70.8419 11.5812 70.551 11.4053 70.1903C11.2317 69.8344 11.1709 69.4285 11.1719 68.9872C11.1938 58.6699 11.1865 48.3528 11.1865 38.035V37.4627C8.12628 37.4628 5.15621 37.4645 2.18848 37.4627V37.4618C1.55924 37.4617 1.05448 37.3371 0.713867 36.992C0.374008 36.6477 0.251018 36.1388 0.250977 35.5047C0.24915 29.15 0.24915 22.795 0.250977 16.4403L0.257812 16.2157C0.286422 15.7054 0.418544 15.2892 0.713867 14.995C1.05117 14.6589 1.54811 14.534 2.16309 14.5331H11.1865V13.9813C11.1865 10.2207 11.2066 6.46614 11.1719 2.70883C11.168 2.26664 11.2281 1.8593 11.4023 1.50278C11.5789 1.14167 11.8634 0.851061 12.2744 0.628754L12.3301 0.59848H58.3555V0.420746L58.7246 0.621918C59.1349 0.845345 59.4186 1.13669 59.5947 1.49789C59.7685 1.8542 59.8291 2.2604 59.8271 2.702C59.7998 8.26103 59.8125 13.8181 59.8125 19.3788C59.8125 19.5434 59.8214 19.7517 59.8018 19.9481C59.7213 20.8127 59.0624 21.4539 58.2119 21.4627C57.389 21.4708 56.7168 20.8934 56.6025 20.0672L56.5879 19.8983C56.5565 19.1639 56.5762 18.4199 56.5762 17.7V11.2655H14.4717V14.5282H44.8359C45.572 14.5282 46.1357 14.6255 46.499 14.9852C46.8629 15.3458 46.9609 15.9057 46.9609 16.6356V35.3641C46.9609 36.0777 46.8559 36.6299 46.499 36.9911C46.1412 37.3531 45.5927 37.4608 44.8848 37.4608H14.4717V67.8172H56.5439V63.7342H26.2441C25.4547 63.7342 24.8634 63.6495 24.4932 63.2733C24.1244 62.8985 24.041 62.3015 24.041 61.5008V42.8416C24.041 42.1567 24.1555 41.6198 24.5146 41.2655C24.873 40.9122 25.4152 40.7997 26.1084 40.7997H56.5801V40.3026C56.5801 37.6598 56.5766 35.0156 56.582 32.3739C56.5821 31.9314 56.6767 31.5465 56.8799 31.2401C57.0852 30.9306 57.388 30.7223 57.7637 30.6112L57.9619 30.5643C58.4226 30.4861 58.8607 30.6152 59.1953 30.8983C59.5753 31.2199 59.8074 31.7271 59.8105 32.3202C59.8215 34.9641 59.8145 37.6094 59.8145 40.2498V40.8016H61.5244C63.8969 40.8016 66.2628 40.827 68.6289 40.787C69.0705 40.7793 69.477 40.8408 69.835 41.0145C70.1966 41.1901 70.4914 41.4716 70.7207 41.8739L70.7529 41.9315V62.5623Z" fill="#FD6F00" stroke="#FD6F00" stroke-width="0.5"/>
<path d="M13.2095 21.3404C14.7346 21.3404 16.2579 21.3349 17.783 21.3422C18.8607 21.3477 19.3611 21.8527 19.3648 22.9391C19.3721 24.9644 19.3721 26.9878 19.3648 29.0131C19.3611 30.125 18.8515 30.6318 17.7228 30.6336C14.72 30.6391 11.7173 30.6391 8.71273 30.6336C7.58213 30.6318 7.06707 30.1269 7.06341 29.0204C7.05611 26.9951 7.05793 24.9717 7.06341 22.9464C7.06707 21.8308 7.5657 21.3441 8.70542 21.3404C10.2068 21.3349 11.7082 21.3404 13.2095 21.3404ZM16.594 27.8701V24.1167H9.84697V27.8701H16.594Z" fill="black"/>
<path d="M31.6854 24.0729C29.5009 24.0729 27.3183 24.0729 25.1338 24.0729C24.9512 24.0729 24.7685 24.0802 24.5877 24.0692C23.7658 24.0146 23.1886 23.433 23.2014 22.6784C23.2123 21.9146 23.7895 21.3567 24.6315 21.3458C25.8827 21.3294 27.1338 21.3403 28.3849 21.3403C31.5922 21.3403 34.7996 21.3403 38.0069 21.3403C39.5082 21.3403 40.1603 21.7614 40.1438 22.7203C40.1274 23.6518 39.4717 24.0729 38.0324 24.0729C35.9174 24.0729 33.8023 24.0729 31.6854 24.0729Z" fill="black"/>
<path d="M31.7053 27.9048C34.0487 27.9048 36.392 27.8956 38.7336 27.9102C39.5683 27.9157 40.1436 28.4936 40.1436 29.261C40.1436 29.9902 39.5884 30.5626 38.8048 30.63C38.624 30.6446 38.4414 30.6373 38.2587 30.6373C33.8678 30.6373 29.4788 30.6373 25.0879 30.6373C24.9509 30.6373 24.814 30.641 24.6788 30.6373C23.8039 30.6027 23.203 30.043 23.2012 29.2665C23.2012 28.4772 23.7911 27.9139 24.6751 27.9102C27.0185 27.8993 29.3601 27.9066 31.7035 27.9084L31.7053 27.9048Z" fill="black"/>
<path d="M36.9799 56.9055C35.4548 56.9055 33.9315 56.9128 32.4064 56.9037C31.3707 56.8982 30.8593 56.3841 30.8538 55.3451C30.8447 53.2979 30.8465 51.2508 30.8538 49.2018C30.8575 48.1336 31.378 47.6141 32.4557 47.6122C35.4822 47.605 38.5068 47.605 41.5333 47.6122C42.6456 47.6141 43.1516 48.13 43.1552 49.2511C43.1607 51.2763 43.1625 53.2997 43.1552 55.325C43.1516 56.3987 42.6401 56.8982 41.5534 56.9037C40.0283 56.9109 38.505 56.9037 36.9799 56.9037V56.9055ZM33.6173 54.1219H40.3643V50.3813H33.6173V54.1219Z" fill="black"/>
<path d="M55.4545 50.3449C53.1806 50.3449 50.9048 50.3485 48.6308 50.3449C47.6189 50.3431 47.0089 49.8399 46.9906 49.0123C46.9723 48.1701 47.6189 47.6142 48.6454 47.6142C53.1952 47.6105 57.745 47.6105 62.2929 47.6142C63.2938 47.6142 63.9148 48.1355 63.9331 48.9576C63.9513 49.8071 63.3194 50.3431 62.2801 50.3449C60.0061 50.3485 57.7303 50.3449 55.4564 50.3449H55.4545Z" fill="black"/>
<path d="M55.4691 56.9074C53.1951 56.9074 50.9193 56.9092 48.6453 56.9074C47.6006 56.9074 46.9741 56.3751 46.9906 55.522C47.007 54.7053 47.6353 54.1767 48.6289 54.1767C53.2006 54.173 57.7723 54.173 62.3458 54.1767C63.2408 54.1767 63.8216 54.6306 63.9239 55.3688C64.0134 56.0069 63.6024 56.6649 62.9668 56.8418C62.7312 56.9074 62.4718 56.9056 62.2234 56.9056C59.9714 56.9092 57.7193 56.9074 55.4673 56.9074H55.4691Z" fill="black"/>
</svg>
